# xmcd CD database file
#
# Track frame offsets:
#	150
#	34074
#	73438
#
# Disc length: 1405 seconds
#
# Revision: 0
# Processed by: cddbd v1.5.2PL0 Copyright (c) Steve Scherf et al.
# Submitted via: CDex 1.70beta2
#
DISCID=28057b03
DTITLE=Wayne Shorter - talks and palys
DYEAR=1900
DGENRE=Jazz
TTITLE0=Sacajawea
TTITLE1=Interview
TTITLE2=vendiendo alegria
EXTD=
EXTT0=
EXTT1=
EXTT2=
PLAYORDER=
